<svg version="1.1" id="Layer_1" xmlns="http://www.w3.org/2000/svg" xmlns:xlink="http://www.w3.org/1999/xlink" x="0px" y="0px"
	 width="100%" viewBox="0 0 538 151" enable-background="new 0 0 538 151" xml:space="preserve">
<path fill="#FEFEFE" opacity="1.000000" stroke="none" 
	d="
M414.000000,152.000000 
	C277.500031,152.000000 141.500031,151.982025 5.500151,152.094147 
	C1.750817,152.097229 0.891265,151.251144 0.902875,147.499771 
	C1.050390,99.833572 1.034869,52.166672 0.916731,4.500307 
	C0.909339,1.517564 1.517887,0.917563 4.499940,0.919087 
	C181.499878,1.009533 358.499847,1.009523 535.499756,0.919152 
	C538.481018,0.917630 539.090637,1.516461 539.083313,4.500007 
	C538.965332,52.499706 538.965332,100.499863 539.083191,148.499573 
	C539.090515,151.481918 538.484070,152.093124 535.500000,152.083893 
	C495.166962,151.958908 454.833405,152.000000 414.000000,152.000000 
z"/>
<path fill="#B74E2B" opacity="1.000000" stroke="none" 
	d="
M15.163360,77.638458 
	C10.291515,78.367455 8.749771,76.866165 8.865852,72.107689 
	C9.215014,57.794559 9.099513,43.466068 8.913481,29.146841 
	C8.868760,25.704634 10.222816,23.475248 12.224507,20.815248 
	C17.661545,13.590095 24.403812,11.410607 33.304482,11.973196 
	C45.412872,12.738536 57.607418,12.269200 69.761665,12.095085 
	C73.023476,12.048360 74.008286,12.979660 73.971169,16.289978 
	C73.801285,31.442371 73.802391,46.598797 73.973236,61.751167 
	C74.008713,64.897690 72.657806,66.818634 70.826599,69.143814 
	C65.428925,75.997498 58.915840,78.476730 50.098042,77.840096 
	C38.667015,77.014801 27.131363,77.638603 15.163360,77.638458 
z"/>
<path fill="#333537" opacity="1.000000" stroke="none" 
	d="
M231.094421,50.999977 
	C231.094254,39.342144 231.221893,28.182001 231.020493,17.027798 
	C230.955154,13.408953 231.892059,12.037579 235.741608,12.089856 
	C250.227463,12.286572 264.717651,12.146600 279.206085,12.179348 
	C285.046875,12.192549 292.869446,19.658653 292.914948,25.572868 
	C293.039185,41.725796 292.898499,57.880749 293.018524,74.033745 
	C293.042389,77.247177 291.666809,77.984528 288.803528,77.922615 
	C275.754425,77.640419 278.294800,79.583977 278.132416,67.614349 
	C277.981049,56.458569 278.084625,45.299088 278.109650,34.141308 
	C278.117004,30.855795 278.884521,27.928349 273.382324,27.948383 
	C267.596710,27.969448 268.936462,31.330429 268.926727,34.379009 
	C268.885284,47.368595 268.811493,60.359623 268.975403,73.347275 
	C269.018860,76.790886 268.027466,78.051941 264.455750,77.954155 
	C253.429489,77.652275 255.204239,79.110458 255.127304,68.721352 
	C255.037292,56.564972 254.930496,44.403412 255.207504,32.252678 
	C255.297409,28.308632 253.584442,28.112333 250.496826,28.093035 
	C247.360565,28.073433 245.739258,28.386543 245.810516,32.271564 
	C246.060867,45.922832 245.775253,59.583622 245.993301,73.236000 
	C246.054535,77.069366 244.771500,78.010651 241.127014,77.970131 
	C231.096115,77.858597 231.094391,78.014633 231.094421,67.986626 
	C231.094437,62.491074 231.094421,56.995525 231.094421,50.999977 
z"/>
<path fill="#333537" opacity="1.000000" stroke="none" 
	d="
M198.440552,69.599167 
	C196.709442,66.331009 195.119904,63.407307 193.669479,60.416153 
	C192.840439,58.706467 191.664200,58.157448 189.757355,58.071445 
	C182.170639,57.729279 182.174347,57.647888 182.174774,65.277634 
	C182.174820,66.110291 182.174759,66.942947 182.174774,67.775604 
	C182.174835,78.969658 181.881607,79.160828 170.392883,77.940529 
	C168.220795,77.709808 167.500809,76.840820 167.502304,74.845757 
	C167.517136,55.028545 167.521790,35.211308 167.494751,15.394123 
	C167.491623,13.094339 168.417587,12.129026 170.783386,12.143198 
	C182.107117,12.211028 193.433060,12.065260 204.754807,12.230067 
	C209.307739,12.296343 216.614471,20.744743 216.740280,25.865778 
	C216.887466,31.857325 216.708878,37.856335 216.809464,43.849792 
	C216.858963,46.800247 215.301224,48.812271 213.509872,50.852810 
	C208.172455,56.932743 208.197296,56.956589 212.057007,64.182617 
	C213.858917,67.556114 215.565460,70.986122 217.503906,74.279449 
	C219.230453,77.212746 218.336075,78.149834 215.214035,77.901077 
	C214.055679,77.808777 212.849228,77.703659 211.723724,77.916489 
	C204.911789,79.204613 200.590927,76.524170 198.440552,69.599167 
z"/>
<path fill="#343638" opacity="1.000000" stroke="none" 
	d="
M355.075623,35.017921 
	C355.075775,48.162571 354.976868,60.811966 355.144592,73.457832 
	C355.187378,76.686134 354.296112,77.907822 350.960175,77.827393 
	C338.017639,77.515320 340.482208,79.430717 340.315002,67.458138 
	C340.176880,57.569054 340.286835,57.567520 330.307861,57.567497 
	C320.788788,57.567474 320.788788,57.567471 320.788849,66.907021 
	C320.788849,67.406288 320.796143,67.905678 320.787781,68.404808 
	C320.606171,79.229904 322.451050,77.465599 311.171295,77.857651 
	C307.021393,78.001884 305.772522,76.726257 305.838318,72.543396 
	C306.076477,57.402721 305.908203,42.255974 305.942657,27.111635 
	C305.960815,19.124636 313.045959,12.115007 321.000854,12.111352 
	C327.824158,12.108217 334.647583,12.086641 341.470734,12.117811 
	C347.349945,12.144668 354.891724,19.579866 355.059326,25.535000 
	C355.143555,28.528234 355.075043,31.525766 355.075623,35.017921 
z"/>
<path fill="#B8502D" opacity="1.000000" stroke="none" 
	d="
M424.039093,72.972488 
	C420.028503,69.555748 419.024414,65.553207 419.152100,60.707111 
	C419.445953,49.554413 419.217072,38.388596 419.255402,27.228291 
	C419.282562,19.324883 426.508881,12.166262 434.384186,12.160330 
	C442.712860,12.154056 451.043182,12.255009 459.369385,12.111878 
	C462.580597,12.056678 464.146698,12.667025 464.151917,16.470200 
	C464.167297,27.632263 464.345978,27.631681 453.244934,27.632183 
	C447.914581,27.632423 442.579407,27.774652 437.255371,27.591818 
	C432.818451,27.439451 434.078796,30.624313 434.205200,32.757446 
	C434.334198,34.933674 432.355530,38.544006 437.216309,38.463039 
	C443.211273,38.363182 449.216095,38.617062 455.203308,38.380611 
	C458.912598,38.234123 460.172363,39.489300 460.031067,43.245705 
	C459.677124,52.654438 461.203247,51.453136 451.809845,51.547428 
	C447.312805,51.592571 442.788696,51.857601 438.324890,51.469730 
	C433.898804,51.085140 433.893494,53.562637 434.093353,56.646030 
	C434.273743,59.428967 432.993042,62.751003 438.163269,62.463779 
	C445.137848,62.076321 452.153748,62.501293 459.144684,62.311249 
	C462.633759,62.216404 464.186066,63.022434 464.152222,66.988762 
	C464.059204,77.890892 464.245209,77.892464 453.469269,77.892487 
	C447.139465,77.892494 440.794312,77.623642 434.485077,77.983894 
	C430.023163,78.238655 426.694977,76.959145 424.039093,72.972488 
z"/>
<path fill="#B74F2C" opacity="1.000000" stroke="none" 
	d="
M477.911774,12.901480 
	C492.069427,10.733552 492.069458,10.733552 492.069458,24.224655 
	C492.069458,29.516369 492.069427,34.808083 492.069427,41.653255 
	C497.383392,34.708347 502.531311,29.250626 506.173859,22.925915 
	C511.810486,13.138792 519.531860,9.783468 530.517944,12.868403 
	C530.424255,15.017573 528.352905,16.433336 527.068054,18.182074 
	C522.335083,24.623613 517.545105,31.029531 512.560608,37.276516 
	C510.822174,39.455212 510.770447,41.121521 512.108154,43.499187 
	C517.656555,53.361198 522.922852,63.382191 528.492310,73.231949 
	C530.427490,76.654373 530.446228,77.514267 525.922974,78.084717 
	C516.800354,79.235207 511.293152,76.354965 508.371277,67.358017 
	C506.545563,61.736397 503.213928,56.603825 500.483582,51.101685 
	C493.488983,56.147594 491.007874,62.730427 491.944092,71.021477 
	C492.185089,73.155693 493.623871,76.833672 490.440918,77.544250 
	C486.491272,78.425987 482.183197,78.454781 478.128174,77.321548 
	C477.163025,77.051834 477.207458,75.654037 477.218750,74.645035 
	C477.448242,54.173611 476.712555,33.696129 477.911774,12.901480 
z"/>
<path fill="#353739" opacity="1.000000" stroke="none" 
	d="
M103.521774,28.297501 
	C101.182190,31.291109 102.429871,34.496696 102.289917,37.554859 
	C102.197533,39.573566 104.075218,39.102718 105.294106,39.113274 
	C110.783852,39.160816 116.276291,39.224407 121.763451,39.096840 
	C124.269081,39.038589 125.217651,39.820324 125.382446,42.464573 
	C126.135834,54.553291 126.218864,54.548115 114.037605,54.548130 
	C102.182549,54.548138 102.182549,54.548141 102.182549,66.433327 
	C102.182549,66.766060 102.182549,67.098801 102.182556,67.431534 
	C102.182579,78.388039 102.185989,78.257286 91.271919,77.972198 
	C88.052734,77.888115 87.360161,76.579018 87.369675,73.756134 
	C87.434204,54.624012 87.456757,35.491280 87.351990,16.359516 
	C87.334061,13.086305 88.471786,12.058249 91.720871,12.100371 
	C103.863701,12.257794 116.010490,12.233064 128.154190,12.113551 
	C131.127472,12.084291 132.179749,12.995282 132.264603,16.084515 
	C132.597137,28.194210 132.701859,28.189219 120.443794,28.192305 
	C114.953766,28.193687 109.463730,28.205469 103.521774,28.297501 
z"/>
<path fill="#B74F2C" opacity="1.000000" stroke="none" 
	d="
M394.750488,54.999908 
	C394.750336,61.666409 394.696838,67.833641 394.775055,73.999199 
	C394.808746,76.655640 393.923096,77.808640 391.037170,77.954803 
	C379.885864,78.519585 379.890808,78.617653 379.890900,67.526604 
	C379.891022,56.026817 379.766144,44.524864 379.964844,33.028511 
	C380.027435,29.409475 379.101562,28.060261 375.245148,28.088524 
	C364.871643,28.164555 365.115784,27.981518 364.802643,17.566229 
	C364.665649,13.009772 366.161041,11.957015 370.469543,12.064777 
	C381.962158,12.352224 393.468811,12.288014 404.965240,12.091108 
	C408.706482,12.027030 410.258301,13.292689 409.781128,16.981236 
	C409.759918,17.145164 409.776825,17.314232 409.778473,17.480879 
	C409.883392,28.000874 409.881897,28.177505 399.413605,28.087309 
	C395.566345,28.054159 394.554016,29.360956 394.678406,33.002834 
	C394.922913,40.161015 394.750519,47.333435 394.750488,54.999908 
z"/>
<path fill="#303234" opacity="1.000000" stroke="none" 
	d="
M140.870514,76.667191 
	C140.627533,56.239059 140.623886,36.245865 140.501099,16.253405 
	C140.483139,13.327452 141.314941,12.178612 144.459167,12.104670 
	C155.217560,11.851669 155.214630,11.728908 155.214676,22.346117 
	C155.214752,39.341980 155.141617,56.338432 155.277466,73.333214 
	C155.304352,76.696007 154.467056,78.400444 150.841171,77.889359 
	C147.603363,77.432968 144.219299,78.739380 140.870514,76.667191 
z"/>
<path fill="#111416" opacity="1.000000" stroke="none" 
	d="
M270.725647,110.006592 
	C270.725586,106.681374 271.007599,103.819710 270.657806,101.037476 
	C270.163727,97.107887 272.213104,96.314964 275.237335,97.069160 
	C277.985657,97.754562 280.538666,97.466133 283.283813,97.155281 
	C289.596893,96.440384 294.793213,98.861984 298.001129,104.438995 
	C301.350555,110.262123 301.155182,116.277573 297.333008,121.841965 
	C293.561096,127.333168 288.096252,129.088730 281.614746,128.097061 
	C279.869781,127.830070 278.277863,126.504601 276.256866,127.240669 
	C278.940887,131.207062 277.652374,135.562943 277.652527,139.695023 
	C277.652649,142.613129 274.899170,141.155319 273.338165,141.435303 
	C270.949982,141.863663 270.687622,140.364731 270.699554,138.435013 
	C270.757202,129.125519 270.725616,119.815460 270.725647,110.006592 
z"/>
<path fill="#111416" opacity="1.000000" stroke="none" 
	d="
M183.013184,128.227264 
	C180.285294,128.131042 181.024567,126.389778 181.020203,125.252533 
	C180.972427,112.767921 181.035583,100.282753 180.950897,87.798538 
	C180.934937,85.448448 181.189850,84.062881 184.102554,84.225952 
	C186.512421,84.360878 188.335938,84.311890 188.032928,87.600822 
	C187.317215,95.369476 189.429688,103.302612 185.896576,112.115593 
	C190.299301,108.608238 192.872498,105.189812 195.235306,101.774559 
	C198.160248,97.546791 201.638382,95.830154 207.154312,97.536469 
	C204.601700,100.804459 202.218185,104.122292 199.540985,107.183243 
	C197.943100,109.010162 197.977097,110.448181 199.141998,112.461563 
	C202.023270,117.441467 204.678879,122.551949 207.480576,127.711990 
	C201.933670,129.291519 198.388733,128.137894 196.627319,122.719162 
	C195.767700,120.074661 194.080322,117.699249 192.666916,115.010445 
	C189.458557,117.363617 187.253952,119.996147 188.000900,124.136398 
	C188.688660,127.948441 186.682098,128.721527 183.013184,128.227264 
z"/>
<path fill="#131517" opacity="1.000000" stroke="none" 
	d="
M235.033813,101.002106 
	C235.935562,102.233543 236.682693,103.143616 237.212158,104.166367 
	C241.302902,112.068077 239.586487,115.065460 231.015869,115.065414 
	C226.859970,115.065392 222.699814,115.181465 218.549484,115.029556 
	C215.148621,114.905083 215.301270,116.350487 216.755142,118.519119 
	C219.051849,121.944870 222.468277,122.863045 226.333099,122.552361 
	C229.496124,122.298103 232.440079,121.166901 235.334717,119.820831 
	C236.583786,126.557007 236.315338,126.988358 230.130127,128.483734 
	C220.104736,130.907516 211.443405,126.520752 208.968719,117.765976 
	C206.852539,110.279510 209.451935,102.757462 215.490997,98.892059 
	C221.615997,94.971657 228.456482,95.624542 235.033813,101.002106 
z"/>
<path fill="#151719" opacity="1.000000" stroke="none" 
	d="
M341.765198,117.195129 
	C344.289124,111.095428 346.586456,105.209846 348.950623,99.351234 
	C349.971008,96.822670 354.455811,95.238022 356.731567,96.428825 
	C358.187714,97.190758 357.285980,98.141396 356.964417,98.908920 
	C351.310730,112.404388 345.672546,125.906998 339.890198,139.347488 
	C338.078583,143.558365 334.434326,140.742249 331.374329,141.456635 
	C331.519440,140.616089 331.457520,140.080719 331.690186,139.757034 
	C338.439392,130.365585 338.028534,120.967430 332.221527,111.245193 
	C330.285950,108.004639 329.211945,104.222786 327.964233,100.612305 
	C327.515289,99.313087 325.277191,97.234306 327.756439,96.573418 
	C329.790070,96.031334 333.410828,94.887642 334.493866,97.756081 
	C336.759552,103.756737 340.174835,109.431648 340.515198,116.401855 
	C340.874268,117.163567 340.333801,117.956779 341.080872,118.206139 
	C341.102753,118.213455 341.358063,117.670883 341.765198,117.195129 
z"/>
<path fill="#141618" opacity="1.000000" stroke="none" 
	d="
M244.591293,99.618393 
	C249.060425,96.238335 253.760452,95.996559 258.687866,96.830559 
	C265.692810,98.016197 265.910583,98.287796 264.786713,105.725052 
	C261.287689,104.207390 257.835724,102.591331 253.930466,102.804558 
	C252.189621,102.899620 250.462036,103.194679 250.070892,105.223938 
	C249.652786,107.393112 251.426498,108.118027 252.977631,108.670204 
	C255.636002,109.616547 258.445435,110.166435 261.049927,111.229431 
	C264.600891,112.678703 266.647430,115.522461 266.606567,119.383362 
	C266.566193,123.198853 264.550262,126.119598 261.093079,127.660088 
	C255.427475,130.184616 249.666580,129.665009 244.157959,127.144821 
	C240.585556,125.510452 242.811005,122.332550 242.297089,119.324524 
	C246.026321,120.755333 249.033600,122.727570 252.582809,122.868126 
	C254.944336,122.961647 257.700317,123.038528 258.220398,120.077339 
	C258.720734,117.228668 255.993607,116.781120 254.000702,116.099113 
	C252.430832,115.561867 250.750458,115.344406 249.186295,114.794075 
	C241.820618,112.202530 240.014084,106.610359 244.591293,99.618393 
z"/>
<path fill="#131617" opacity="1.000000" stroke="none" 
	d="
M317.345306,103.717834 
	C313.129578,104.639755 312.039703,107.386299 312.024200,110.848793 
	C312.004150,115.335983 311.861511,119.830650 312.072388,124.307938 
	C312.206665,127.159042 311.705780,128.451187 308.372650,128.368240 
	C305.317322,128.292252 304.915619,127.087234 304.958282,124.516006 
	C305.087769,116.706963 305.325043,108.876266 304.883240,101.090141 
	C304.625244,96.542839 307.212952,96.292267 309.931946,97.147713 
	C312.408173,97.926781 314.350189,97.810783 316.694702,96.991508 
	C318.622009,96.318016 321.259949,95.285110 322.747406,97.088699 
	C323.663666,98.199707 323.560699,100.757225 322.999908,102.341164 
	C322.117615,104.833122 319.526550,103.121826 317.345306,103.717834 
z"/>
<path fill="#422EF9" opacity="1.000000" stroke="none" 
	d="
M204.040649,139.143524 
	C202.705582,141.202911 201.081467,141.619965 199.096069,141.581207 
	C194.269211,141.486954 189.434341,141.419113 184.612488,141.600464 
	C181.860535,141.703979 180.809341,140.923462 180.882996,137.998169 
	C180.949783,135.346680 181.416397,134.117004 184.444458,134.199768 
	C191.861633,134.402435 199.288055,134.265961 206.791306,134.265961 
	C206.787704,136.670090 205.093094,137.491699 204.040649,139.143524 
z"/>
<path fill="#909091" opacity="1.000000" stroke="none" 
	d="
M341.710999,117.038681 
	C342.045349,118.306847 341.490265,119.303398 340.134888,120.348495 
	C340.134888,119.108086 340.134888,118.227821 340.310394,117.041443 
	C340.809723,116.859306 341.133514,116.983299 341.710999,117.038681 
z"/>
<path fill="#FDFBFA" opacity="1.000000" stroke="none" 
	d="
M29.396759,51.901360 
	C27.712168,50.531956 28.379930,48.939491 28.173908,47.505569 
	C27.682098,44.082523 28.987230,42.424072 32.558201,43.025032 
	C36.148693,43.629284 36.166916,41.412247 36.095596,38.840977 
	C36.028580,36.424606 36.370834,34.004341 32.694546,34.273109 
	C30.539999,34.430622 28.319389,34.018600 26.207331,34.356106 
	C21.259417,35.146786 20.401817,32.737385 20.598034,28.465336 
	C20.738861,25.399174 21.285406,24.016893 24.761522,24.080427 
	C35.921654,24.284405 47.092678,24.347601 58.249458,24.066549 
	C63.020775,23.946352 61.989185,26.897907 62.198860,29.610060 
	C62.440132,32.730896 61.937050,34.398338 58.053501,34.400780 
	C46.437725,34.408085 46.438026,34.589764 46.437759,46.112930 
	C46.437630,51.611546 46.299217,57.114632 46.478043,62.607403 
	C46.630322,67.284775 43.295639,65.831078 40.950626,65.945557 
	C38.570004,66.061783 35.578976,66.753700 36.036129,62.543652 
	C36.179184,61.226196 35.885212,59.852970 36.088955,58.551888 
	C36.870739,53.559425 35.220417,51.029007 29.396759,51.901360 
z"/>
<path fill="#FDFDFD" opacity="1.000000" stroke="none" 
	d="
M186.035660,43.311993 
	C182.990952,43.638165 181.740967,43.062202 181.664352,39.949421 
	C181.360077,27.587671 181.232178,27.590820 193.520844,27.590815 
	C201.843079,27.590811 201.843079,27.590811 201.843002,35.966492 
	C201.843002,36.963779 201.716904,37.980335 201.865738,38.954895 
	C202.399139,42.447483 200.999786,43.654606 197.496704,43.376312 
	C193.862915,43.087631 190.188370,43.312103 186.035660,43.311993 
z"/>
<path fill="#FFFFFF" opacity="1.000000" stroke="none" 
	d="
M331.979523,26.940292 
	C340.282471,26.940563 340.282471,26.940563 340.282501,34.682724 
	C340.282593,43.300659 340.282593,43.300663 330.327026,43.300663 
	C320.792084,43.300663 320.792084,43.300659 320.792664,33.776558 
	C320.793091,26.940750 320.793091,26.940737 327.508820,26.940310 
	C328.834717,26.940224 330.160614,26.940294 331.979523,26.940292 
z"/>
<path fill="#FAFAFA" opacity="1.000000" stroke="none" 
	d="
M277.760620,112.073257 
	C277.152771,107.492668 278.729401,104.846481 282.947968,104.028984 
	C287.072296,103.229752 291.177338,105.471573 292.653442,109.299599 
	C294.204590,113.322121 292.671082,118.195473 289.024994,120.226974 
	C285.453766,122.216774 281.923126,121.875771 278.859924,119.163994 
	C276.815826,117.354439 278.083832,114.754951 277.760620,112.073257 
z"/>
<path fill="#E5E5E6" opacity="1.000000" stroke="none" 
	d="
M220.284058,103.030807 
	C224.840515,101.501381 228.523727,102.141747 231.144089,105.932968 
	C232.726578,108.222565 232.704880,109.923233 229.105484,109.749718 
	C225.976852,109.598900 222.831009,109.812393 219.701263,109.673599 
	C218.345596,109.613487 216.375748,110.612572 215.753647,108.789825 
	C215.269714,107.371925 216.485657,105.997757 217.579865,104.959549 
	C218.290970,104.284859 219.138702,103.754196 220.284058,103.030807 
z"/>
</svg>